<?xml version="1.0" encoding="utf-8"?>
<!-- Generator: Adobe Illustrator 19.0.0, SVG Export Plug-In . SVG Version: 6.00 Build 0)  -->
<svg version="1.1" id="Oikos" xmlns="http://www.w3.org/2000/svg" xmlns:xlink="http://www.w3.org/1999/xlink" x="0px" y="0px"
	 viewBox="-299 351 200 100" style="enable-background:new -299 351 200 100;" xml:space="preserve">
<style type="text/css">
	.st0{fill:#FFFFFF;}
</style>
<path id="E" class="st0" d="M-105.5,409.6l3.8,0.5c-0.6,2.2-1.7,3.9-3.3,5c-1.6,1.1-3.6,1.8-6,1.8c-3.1,0-5.6-0.9-7.4-2.8
	c-1.8-1.9-2.7-4.6-2.7-8.1c0-3.5,0.9-6.4,2.7-8.3c1.8-1.9,4.2-3,7.2-3c2.8,0,5.1,0.9,7,2.8s2.7,4.7,2.7,8.2c0,0.2,0,0.6,0,0.9h-15.8
	c0.1,2.4,0.8,4.1,1.9,5.4c1.1,1.3,2.6,1.8,4.4,1.8c1.4,0,2.5-0.3,3.4-1C-106.8,412.2-106.1,411.2-105.5,409.6z M-117.4,403.8h11.9
	c-0.1-1.8-0.6-3.1-1.4-4c-1.1-1.4-2.6-2.1-4.4-2.1c-1.7,0-3.1,0.6-4.2,1.7S-117.3,402-117.4,403.8z"/>
<path id="C" class="st0" d="M-126.7,408.7l3.5,0.5c-0.3,2.4-1.4,4.3-3,5.7c-1.6,1.4-3.5,2.1-5.9,2.1c-3,0-5.2-0.9-7.1-2.8
	c-1.8-1.9-2.6-4.7-2.6-8.2c0-2.3,0.3-4.3,1.1-6c0.8-1.7,1.9-3,3.5-3.9c1.6-0.9,3.2-1.3,5.1-1.3c2.3,0,4.2,0.6,5.7,1.7
	c1.5,1.1,2.4,2.8,2.8,5l-3.5,0.6c-0.3-1.5-0.9-2.5-1.8-3.2c-0.9-0.7-1.8-1-3.1-1c-1.8,0-3.3,0.7-4.4,1.9s-1.7,3.4-1.7,6.2
	c0,2.8,0.6,4.9,1.6,6.3c1,1.4,2.5,1.9,4.3,1.9c1.4,0,2.6-0.5,3.5-1.3C-127.6,412-126.9,410.6-126.7,408.7z"/>
<path id="N_1_" class="st0" d="M-163.4,416.6v-21.3h3.2v3.1c1.6-2.4,3.9-3.5,6.7-3.5c1.3,0,2.5,0.2,3.5,0.7c1,0.5,1.8,1,2.4,1.8
	c0.6,0.8,0.9,1.6,1.1,2.6c0.1,0.7,0.2,1.8,0.2,3.5v13.1h-3.6v-13c0-1.5-0.1-2.6-0.5-3.3c-0.3-0.7-0.8-1.3-1.5-1.7s-1.6-0.7-2.5-0.7
	c-1.5,0-2.8,0.5-4,1.5s-1.7,2.8-1.7,5.6v11.6C-160,416.6-163.4,416.6-163.4,416.6z"/>
<path id="A" class="st0" d="M-172.3,414c-1.4,1.1-2.6,1.9-3.9,2.4c-1.3,0.5-2.5,0.7-4,0.7c-2.4,0-4.1-0.6-5.4-1.7
	c-1.3-1.1-1.9-2.6-1.9-4.3c0-1,0.2-1.9,0.7-2.8c0.5-0.9,1.1-1.6,1.8-2.1c0.7-0.5,1.6-0.9,2.6-1.1c0.7-0.2,1.8-0.3,3.2-0.6
	c3-0.3,5-0.8,6.4-1.3c0-0.5,0-0.8,0-0.9c0-1.5-0.3-2.5-1-3.1c-0.9-0.8-2.3-1.3-4.1-1.3c-1.7,0-3,0.3-3.8,0.9s-1.4,1.6-1.8,3.2
	l-3.5-0.5c0.3-1.5,0.8-2.7,1.6-3.6c0.8-0.9,1.8-1.6,3.2-2.2c1.4-0.6,3-0.8,4.8-0.8c1.8,0,3.3,0.2,4.4,0.7c1.1,0.5,1.9,0.9,2.5,1.6
	c0.6,0.7,0.9,1.5,1.1,2.5c0.1,0.6,0.2,1.7,0.2,3.3v4.8c0,3.3,0.1,5.5,0.2,6.4s0.5,1.7,0.9,2.5h-3.8
	C-172,415.8-172.2,414.9-172.3,414z M-172.6,405.9c-1.3,0.6-3.3,1-5.9,1.4c-1.5,0.2-2.5,0.5-3.2,0.7s-1.1,0.7-1.4,1.1
	s-0.5,1.1-0.5,1.7c0,0.9,0.3,1.7,1.1,2.4c0.8,0.7,1.8,0.9,3.2,0.9c1.4,0,2.6-0.3,3.8-0.9c1.1-0.6,1.8-1.5,2.4-2.5
	c0.3-0.8,0.6-2.1,0.6-3.6v-1.1H-172.6z"/>
<path id="N" class="st0" d="M-209,416.6v-21.3h3.2v3.1c1.6-2.4,3.9-3.5,6.7-3.5c1.3,0,2.5,0.2,3.5,0.7s1.8,1,2.4,1.8
	c0.6,0.8,0.9,1.6,1.1,2.6c0.1,0.7,0.2,1.8,0.2,3.5v13.1h-3.6v-13c0-1.5-0.1-2.6-0.5-3.3c-0.3-0.7-0.8-1.3-1.5-1.7
	c-0.7-0.5-1.6-0.7-2.5-0.7c-1.5,0-2.8,0.5-4,1.5c-1.1,1-1.7,2.8-1.7,5.6v11.6C-205.6,416.6-209,416.6-209,416.6z"/>
<path id="I" class="st0" d="M-218.1,391.3v-4.1h3.6v4.1H-218.1z M-218.1,416.6v-21.3h3.6v21.3C-214.5,416.6-218.1,416.6-218.1,416.6
	z"/>
<path id="F" class="st0" d="M-228.7,416.6v-18.5h-3.2v-2.8h3.2V393c0-1.5,0.1-2.5,0.3-3.2c0.3-0.9,0.9-1.7,1.8-2.3
	c0.9-0.6,2.1-0.9,3.6-0.9c1,0,2.2,0.1,3.4,0.3l-0.6,3.2c-0.8-0.1-1.5-0.2-2.2-0.2c-1.1,0-1.8,0.2-2.3,0.7c-0.5,0.5-0.7,1.4-0.7,2.6
	v1.9h4.1v2.8h-4.1v18.5L-228.7,416.6L-228.7,416.6z"/>
<path id="Derive" class="st0" d="M-247.8,391.7c-0.2-8.4-0.8-14.3-2.1-17.6c-1.2-3.3-2.8-5.8-4.8-7.2c-2-1.5-4.2-2.2-6.7-2.2
	c-2.9,0-5.6,0.9-8.2,2.6c-2.6,1.7-5.2,4.8-7.6,9.4c-0.7,1.2-1.2,2-1.6,2.2c-0.4,0.3-0.9,0.4-1.4,0.4c-0.9,0-1.6-0.2-2.2-0.8
	c-0.6-0.6-0.8-1.2-0.8-1.9c0-1.2,1.2-3.5,3.4-6.9c2.2-3.4,5.1-6,8.5-8c3.4-1.9,6.7-2.9,9.9-2.9c4.8,0,8.7,1.7,12,5.3
	c4.8,5,7.1,13.7,7.1,26.2c0,11.3-1.7,21-5.2,29.6c-3.5,8.5-8.1,14.8-14.1,18.9c-5.9,4.1-11.8,6.2-17.7,6.2c-5.5,0-9.9-1.7-13.2-5.1
	c-3.4-3.5-5-8.1-5-14.1c0-5.1,1.2-9.8,3.5-14.1c2.3-4.3,5.4-7.9,9.3-10.7c3.9-2.8,8.7-5,14.6-6.7
	C-264.1,392.7-256.7,391.8-247.8,391.7z M-247.8,397.4c-6.9,0.2-12.2,0.6-15.9,1.2c-6,1.2-11,2.9-15.1,5.3c-4.1,2.4-7.3,5.6-9.5,9.6
	c-2.2,4-3.5,8.2-3.5,12.6c0,3.9,1.2,7.2,3.7,9.6c2.5,2.5,5.6,3.7,9.3,3.7c3.6,0,7.2-1,10.9-3s7-4.8,9.8-8.3
	c2.8-3.5,5.1-8.2,7.1-14.2C-249.7,409.6-248.7,404.1-247.8,397.4z"/>
</svg>
