<?xml version="1.0" encoding="utf-8"?>
<!-- Generator: Adobe Illustrator 19.0.0, SVG Export Plug-In . SVG Version: 6.00 Build 0)  -->
<svg version="1.1" id="Oikos" xmlns="http://www.w3.org/2000/svg" xmlns:xlink="http://www.w3.org/1999/xlink" x="0px" y="0px"
	 viewBox="65 -15 200 100" style="enable-background:new 65 -15 200 100;" xml:space="preserve">
<style type="text/css">
	.st0{fill:#FFFFFF;}
	.st1{fill:url(#Derive_1_);}
</style>
<path id="E" class="st0" d="M223.8,42.8L226,43c-0.3,1.3-1,2.2-1.9,2.9c-0.9,0.6-2.1,1-3.4,1c-1.8,0-3.2-0.5-4.2-1.6
	s-1.5-2.6-1.5-4.6s0.5-3.7,1.5-4.7s2.4-1.7,4.1-1.7c1.6,0,2.9,0.5,4,1.6s1.5,2.7,1.5,4.7c0,0.1,0,0.3,0,0.5h-9
	c0.1,1.4,0.5,2.3,1.1,3.1c0.6,0.7,1.5,1,2.5,1c0.8,0,1.4-0.2,1.9-0.6C223.1,44.2,223.5,43.7,223.8,42.8z M217,39.4h6.8
	c-0.1-1-0.3-1.8-0.8-2.3c-0.6-0.8-1.5-1.2-2.5-1.2c-1,0-1.8,0.3-2.4,1C217.5,37.6,217.1,38.4,217,39.4z"/>
<path id="C" class="st0" d="M211.7,42.2l2,0.3c-0.2,1.4-0.8,2.5-1.7,3.3c-0.9,0.8-2,1.2-3.4,1.2c-1.7,0-3-0.5-4.1-1.6
	c-1-1.1-1.5-2.7-1.5-4.7c0-1.3,0.2-2.5,0.6-3.4c0.5-1,1.1-1.7,2-2.2s1.8-0.7,2.9-0.7c1.3,0,2.4,0.3,3.3,1c0.9,0.6,1.4,1.6,1.6,2.9
	l-2,0.3c-0.2-0.9-0.5-1.4-1-1.8c-0.5-0.4-1-0.6-1.8-0.6c-1,0-1.9,0.4-2.5,1.1c-0.6,0.7-1,1.9-1,3.5c0,1.6,0.3,2.8,0.9,3.6
	c0.6,0.8,1.4,1.1,2.5,1.1c0.8,0,1.5-0.3,2-0.7C211.2,44.1,211.6,43.3,211.7,42.2z"/>
<path id="N_1_" class="st0" d="M190.7,46.8V34.6h1.8v1.8c0.9-1.4,2.2-2,3.8-2c0.7,0,1.4,0.1,2,0.4c0.6,0.3,1,0.6,1.4,1
	s0.5,0.9,0.6,1.5c0.1,0.4,0.1,1,0.1,2v7.5h-2.1v-7.4c0-0.9-0.1-1.5-0.3-1.9c-0.2-0.4-0.5-0.7-0.9-1c-0.4-0.2-0.9-0.4-1.4-0.4
	c-0.9,0-1.6,0.3-2.3,0.9c-0.7,0.6-1,1.6-1,3.2v6.6C192.7,46.8,190.7,46.8,190.7,46.8z"/>
<path id="A" class="st0" d="M185.7,45.3c-0.8,0.6-1.5,1.1-2.2,1.4c-0.7,0.3-1.4,0.4-2.3,0.4c-1.4,0-2.3-0.3-3.1-1
	c-0.7-0.6-1.1-1.5-1.1-2.5c0-0.6,0.1-1.1,0.4-1.6s0.6-0.9,1-1.2s0.9-0.5,1.5-0.6c0.4-0.1,1-0.2,1.8-0.3c1.7-0.2,2.9-0.5,3.7-0.7
	c0-0.3,0-0.5,0-0.5c0-0.9-0.2-1.4-0.6-1.8c-0.5-0.5-1.3-0.7-2.3-0.7c-1,0-1.7,0.2-2.2,0.5c-0.5,0.3-0.8,0.9-1,1.8l-2-0.3
	c0.2-0.9,0.5-1.5,0.9-2.1c0.5-0.5,1-0.9,1.8-1.3c0.8-0.3,1.7-0.5,2.7-0.5s1.9,0.1,2.5,0.4c0.6,0.3,1.1,0.5,1.4,0.9
	c0.3,0.4,0.5,0.9,0.6,1.4c0.1,0.3,0.1,1,0.1,1.9v2.7c0,1.9,0.1,3.1,0.1,3.7c0.1,0.5,0.3,1,0.5,1.4h-2.2
	C185.8,46.3,185.7,45.8,185.7,45.3z M185.5,40.6c-0.7,0.3-1.9,0.6-3.4,0.8c-0.9,0.1-1.4,0.3-1.8,0.4c-0.4,0.1-0.6,0.4-0.8,0.6
	s-0.3,0.6-0.3,1c0,0.5,0.2,1,0.6,1.4c0.5,0.4,1,0.5,1.8,0.5s1.5-0.2,2.2-0.5c0.6-0.3,1-0.9,1.4-1.4c0.2-0.5,0.3-1.2,0.3-2.1
	L185.5,40.6L185.5,40.6L185.5,40.6z"/>
<path id="N" class="st0" d="M164.7,46.8V34.6h1.8v1.8c0.9-1.4,2.2-2,3.8-2c0.7,0,1.4,0.1,2,0.4c0.6,0.3,1,0.6,1.4,1s0.5,0.9,0.6,1.5
	c0.1,0.4,0.1,1,0.1,2v7.5h-2.1v-7.4c0-0.9-0.1-1.5-0.3-1.9c-0.2-0.4-0.5-0.7-0.9-1c-0.4-0.3-0.9-0.4-1.4-0.4c-0.9,0-1.6,0.3-2.3,0.9
	c-0.6,0.6-1,1.6-1,3.2v6.6C166.7,46.8,164.7,46.8,164.7,46.8z"/>
<path id="I" class="st0" d="M159.5,32.3V30h2.1v2.3H159.5z M159.5,46.8V34.6h2.1v12.2H159.5z"/>
<path id="F" class="st0" d="M153.5,46.8V36.2h-1.8v-1.6h1.8v-1.3c0-0.9,0.1-1.4,0.2-1.8c0.2-0.5,0.5-1,1-1.3
	c0.5-0.3,1.2-0.5,2.1-0.5c0.6,0,1.3,0.1,1.9,0.2l-0.3,1.8c-0.5-0.1-0.9-0.1-1.3-0.1c-0.6,0-1,0.1-1.3,0.4c-0.3,0.3-0.4,0.8-0.4,1.5
	v1.1h2.3v1.6h-2.3v10.6L153.5,46.8L153.5,46.8z"/>
<linearGradient id="Derive_1_" gradientUnits="userSpaceOnUse" x1="106.5815" y1="35.0152" x2="142.9629" y2="35.0152">
	<stop  offset="0" style="stop-color:#F3A91C"/>
	<stop  offset="1" style="stop-color:#D0B06A"/>
</linearGradient>
<path id="Derive" class="st1" d="M139.3,28.3c-0.1-5.5-0.5-9.4-1.4-11.6c-0.8-2.2-1.8-3.8-3.2-4.7c-1.3-1-2.8-1.4-4.4-1.4
	c-1.9,0-3.7,0.6-5.4,1.7c-1.7,1.1-3.4,3.2-5,6.2c-0.5,0.8-0.8,1.3-1.1,1.4c-0.3,0.2-0.6,0.3-0.9,0.3c-0.6,0-1.1-0.1-1.4-0.5
	c-0.4-0.4-0.5-0.8-0.5-1.3c0-0.8,0.8-2.3,2.2-4.5c1.4-2.2,3.4-4,5.6-5.3c2.2-1.3,4.4-1.9,6.5-1.9c3.2,0,5.7,1.1,7.9,3.5
	c3.2,3.3,4.7,9,4.7,17.3c0,7.4-1.1,13.8-3.4,19.5c-2.3,5.6-5.3,9.8-9.3,12.5c-3.9,2.7-7.8,4.1-11.7,4.1c-3.6,0-6.5-1.1-8.7-3.4
	c-2.2-2.3-3.3-5.3-3.3-9.3c0-3.4,0.8-6.5,2.3-9.3c1.5-2.8,3.6-5.2,6.1-7.1c2.6-1.8,5.7-3.3,9.6-4.4C128.6,29,133.5,28.4,139.3,28.3z
	 M139.3,32c-4.5,0.1-8,0.4-10.5,0.8c-4,0.8-7.2,1.9-10,3.5c-2.7,1.6-4.8,3.7-6.3,6.3c-1.4,2.6-2.3,5.4-2.3,8.3
	c0,2.6,0.8,4.7,2.4,6.3c1.6,1.6,3.7,2.4,6.1,2.4c2.4,0,4.7-0.7,7.2-2c2.4-1.3,4.6-3.2,6.5-5.5c1.8-2.3,3.4-5.4,4.7-9.4
	C138.1,40.1,138.7,36.5,139.3,32z"/>
</svg>
