<?xml version="1.0" encoding="utf-8"?>
<!-- Generator: Adobe Illustrator 22.1.0, SVG Export Plug-In . SVG Version: 6.00 Build 0)  -->
<svg version="1.1" id="Layer_1" xmlns="http://www.w3.org/2000/svg" xmlns:xlink="http://www.w3.org/1999/xlink" x="0px" y="0px"
	 viewBox="0 0 431 278" style="enable-background:new 0 0 431 278;" xml:space="preserve">
<style type="text/css">
	.st0{fill:none;stroke:#2DEB96;stroke-width:16;}
	.st1{fill:#2DEB96;}
	.st2{fill:#1F364A;}
	.st3{fill:#5082B3;}
	.st4{fill:none;stroke:#5082B3;stroke-width:4;stroke-linecap:round;stroke-dasharray:10,9;}
	.st5{fill:none;stroke:#46BF89;stroke-width:4;stroke-linecap:round;stroke-dasharray:10,9;}
	.st6{fill:#355978;}
</style>
<title>Group 2</title>
<desc>Created with Sketch.</desc>
<g id="Oikos_1366_UI_v2_menu2-Copy" transform="translate(-749.000000, -2966.000000)">
	<g id="Details" transform="translate(59.000000, 2936.000000)">
		<g id="Group-2" transform="translate(690.000000, 30.000000)">
			<path id="Rectangle-3" class="st0" d="M236,10.3L107.3,139L236,267.7L364.7,139L236,10.3z"/>
			
				<g id="Group-4" transform="translate(388.933832, 141.222259) rotate(-270.000000) translate(-388.933832, -141.222259) translate(261.433832, 99.222259)">
				<circle id="Oval-6" class="st1" cx="125.5" cy="6.5" r="6.5"/>
			</g>
			<path id="Rectangle-3_1_" class="st2" d="M248,127L248,127c6.6,6.6,6.6,17.4,0,24l0,0c-6.6,6.6-17.4,6.6-24,0l0,0
				c-6.6-6.6-6.6-17.4,0-24l0,0C230.6,120.4,241.4,120.4,248,127z"/>
			<path id="Oval" class="st3" d="M102,234c54.2,0,98-42.6,98-95s-43.8-95-98-95S4,86.6,4,139S47.8,234,102,234z M102,238
				C45.7,238,0,193.7,0,139s45.7-99,102-99s102,44.3,102,99S158.3,238,102,238z"/>
			<path id="Line-2" class="st4" d="M12,139c136,0,201.9,0,197.8,0"/>
			<path id="Line-2-Copy-2" class="st5" d="M268,139c98.2,0,145.8,0,142.9,0"/>
			<path id="Line-2-Copy" class="st5" d="M261,119l91-91L261,119z"/>
			<path id="Line-2-Copy_1_" class="st5" d="M261,159l91,91L261,159z"/>
		</g>
	</g>
	
		<rect x="1101.4" y="2981.2" transform="matrix(0.7071 -0.7071 0.7071 0.7071 -1787.8992 1657.9236)" class="st6" width="11.8" height="11.8"/>
	<rect x="1102.4" y="3217.3" class="st3" width="11.8" height="11.8"/>
</g>
</svg>
