<?xml version="1.0" encoding="utf-8"?>
<!-- Generator: Adobe Illustrator 22.1.0, SVG Export Plug-In . SVG Version: 6.00 Build 0)  -->
<svg version="1.1" id="Layer_1" xmlns="http://www.w3.org/2000/svg" xmlns:xlink="http://www.w3.org/1999/xlink" x="0px" y="0px"
	 viewBox="0 0 297 279" style="enable-background:new 0 0 297 279;" xml:space="preserve">
<style type="text/css">
	.st0{fill:none;stroke:#26244A;stroke-width:4;}
	.st1{fill:#2DEB96;}
	.st2{fill:none;stroke:#2DEB96;stroke-width:16;}
	.st3{fill:none;stroke:#355978;stroke-width:4;}
	.st4{fill:none;stroke:#5082B3;stroke-width:4;}
	.st5{fill:#355978;}
</style>
<title>Group 6</title>
<desc>Created with Sketch.</desc>
<g id="Dskt_UI">
	<g id="Oikos_1366_UI_v2_menu2-Copy" transform="translate(-180.000000, -3884.000000)">
		<g id="Details" transform="translate(59.000000, 2936.000000)">
			<g id="Group-6" transform="translate(121.000000, 948.000000)">
				<path id="Rectangle-8-Copy-5" class="st0" d="M198,38.6v154.3l-76-35V3.6L198,38.6z"/>
				<polygon id="Rectangle-8-Copy-6" class="st1" points="160,61.9 80,25 80,183.7 160,220.6 				"/>
				<path id="Rectangle-8-Copy-9" class="st2" d="M289,125v141.1l-64-29.5V95.5L289,125z"/>
				<path id="Rectangle-8-Copy-7" class="st3" d="M118,88.6v154.3l-76-35V53.6L118,88.6z"/>
				<path id="Rectangle-8-Copy-8" class="st4" d="M78,113.2v154.3l-76-35V78.1L78,113.2z"/>
			</g>
		</g>
	</g>
</g>
<path id="Combined-Shape-Copy-9" class="st5" d="M203.4,161.2c0.7-1.5,2.5-2.2,4-1.5c1.5,0.7,2.2,2.5,1.5,4c-0.7,1.5-2.5,2.2-4,1.5
	C203.3,164.5,202.7,162.7,203.4,161.2z M222.4,170.1c0.7-1.5,2.5-2.2,4-1.5c1.5,0.7,2.2,2.5,1.5,4s-2.5,2.2-4,1.5
	C222.4,173.4,221.7,171.6,222.4,170.1z M127.3,125.7c0.7-1.5,2.5-2.2,4-1.5c1.5,0.7,2.2,2.5,1.5,4c-0.7,1.5-2.5,2.2-4,1.5
	C127.2,129,126.6,127.2,127.3,125.7z M241.5,179c0.7-1.5,2.5-2.2,4-1.5c1.5,0.7,2.2,2.5,1.5,4c-0.7,1.5-2.5,2.2-4,1.5
	C241.4,182.3,240.8,180.5,241.5,179z M146.3,134.6c0.7-1.5,2.5-2.2,4-1.5c1.5,0.7,2.2,2.5,1.5,4c-0.7,1.5-2.5,2.2-4,1.5
	C146.2,137.9,145.6,136.1,146.3,134.6z M260.5,187.8c0.7-1.5,2.5-2.2,4-1.5c1.5,0.7,2.2,2.5,1.5,4c-0.7,1.5-2.5,2.2-4,1.5
	C260.4,191.1,259.8,189.3,260.5,187.8z M165.3,143.5c0.7-1.5,2.5-2.2,4-1.5c1.5,0.7,2.2,2.5,1.5,4c-0.7,1.5-2.5,2.2-4,1.5
	C165.3,146.8,164.6,145,165.3,143.5z M279.5,196.7c0.7-1.5,2.5-2.2,4-1.5c1.5,0.7,2.2,2.5,1.5,4c-0.7,1.5-2.5,2.2-4,1.5
	C279.5,200,278.8,198.2,279.5,196.7z M184.4,152.3c0.7-1.5,2.5-2.2,4-1.5c1.5,0.7,2.2,2.5,1.5,4c-0.7,1.5-2.5,2.2-4,1.5
	C184.3,155.6,183.7,153.8,184.4,152.3z"/>
</svg>
