<?xml version="1.0" encoding="utf-8"?>
<!-- Generator: Adobe Illustrator 22.1.0, SVG Export Plug-In . SVG Version: 6.00 Build 0)  -->
<svg version="1.1" id="Layer_1" xmlns="http://www.w3.org/2000/svg" xmlns:xlink="http://www.w3.org/1999/xlink" x="0px" y="0px"
	 viewBox="0 0 256 252" style="enable-background:new 0 0 256 252;" xml:space="preserve">
<style type="text/css">
	.st0{fill:none;stroke:#5082B3;stroke-width:4;}
	.st1{fill:none;stroke:#2DEB96;stroke-width:16;}
	.st2{fill:#1F364A;}
	.st3{fill:none;stroke:#46BF89;stroke-width:4;stroke-linecap:round;stroke-dasharray:4,12;}
	.st4{fill:#2DEB96;}
	.st5{fill:#5082B3;}
</style>
<title>Group</title>
<desc>Created with Sketch.</desc>
<g id="Details" transform="translate(59.000000, 2936.000000)">
	<g id="Group" transform="translate(168.000000, 365.000000)">
		<path id="Combined-Shape" class="st0" d="M-224-3174.2c26.9-32,72.9-53,125-53s98.1,21,125,53c-26.9,32-72.9,53-125,53
			S-197.1-3142.3-224-3174.2z"/>
		<path id="Rectangle-3" class="st1" d="M-99-3214.8l-40.6,40.6l40.6,40.6l40.6-40.6L-99-3214.8z"/>
		<circle id="Oval-6" class="st2" cx="-180.5" cy="-3253.8" r="6.5"/>
		<circle id="Oval-6-Copy" class="st2" cx="-99.5" cy="-3056.8" r="6.5"/>
		<path id="Line-2-Copy" class="st3" d="M-64-3202.9l42.4-42.4L-64-3202.9z"/>
		<path id="Line-2-Copy-7" class="st3" d="M-64-3145.2l42.4,42.4L-64-3145.2z"/>
		<path id="Line-2-Copy-4" class="st3" d="M-170-3245.2l42.4,42.4L-170-3245.2z"/>
		<path id="Line-2-Copy-6" class="st3" d="M-170-3102.9l42.4-42.4L-170-3102.9z"/>
		<path id="Line-2-Copy-3" class="st3" d="M-99.3-3223.9l0-59.4L-99.3-3223.9z"/>
		<path id="Line-2-Copy-5" class="st3" d="M-99.3-3069.9v-59.4V-3069.9z"/>
		<path id="Rectangle-3_1_" class="st2" d="M-84.9-3188.4L-84.9-3188.4c7.8,7.8,7.8,20.5,0,28.3l0,0c-7.8,7.8-20.5,7.8-28.3,0l0,0
			c-7.8-7.8-7.8-20.5,0-28.3l0,0C-105.3-3196.2-92.7-3196.2-84.9-3188.4z"/>
	</g>
</g>
<rect x="121.7" y="2.5" transform="matrix(0.7071 0.7071 -0.7071 0.7071 43.4056 -87.7824)" class="st4" width="12" height="12"/>
<rect x="207.2" y="42.4" transform="matrix(-1.836970e-16 1 -1 -1.836970e-16 261.0017 -164.7838)" class="st5" width="11.3" height="11.3"/>
<rect x="42" y="203.3" transform="matrix(-1.836970e-16 1 -1 -1.836970e-16 256.6689 161.3296)" class="st5" width="11.3" height="11.3"/>
<rect x="207.2" y="200.8" transform="matrix(-1.836970e-16 1 -1 -1.836970e-16 419.3707 -6.4148)" class="st4" width="11.3" height="11.3"/>
</svg>
