<?xml version="1.0" encoding="utf-8"?>
<!-- Generator: Adobe Illustrator 22.1.0, SVG Export Plug-In . SVG Version: 6.00 Build 0)  -->
<svg version="1.1" id="Layer_1" xmlns="http://www.w3.org/2000/svg" xmlns:xlink="http://www.w3.org/1999/xlink" x="0px" y="0px"
	 viewBox="0 0 262 263" style="enable-background:new 0 0 262 263;" xml:space="preserve">
<style type="text/css">
	.st0{fill:#2DEB96;}
	.st1{fill:none;stroke:#2DEB96;stroke-width:4;stroke-linecap:round;stroke-dasharray:10,9;}
	.st2{fill:#5082B3;}
	.st3{fill:#FFFFFF;}
	.st4{fill:none;stroke:#5082B3;stroke-width:4;}
</style>
<title>Group Copy 2</title>
<desc>Created with Sketch.</desc>
<g id="Dskt_UI">
	<g id="Oikos_1366_UI_v2_menu2-Copy" transform="translate(-834.000000, -3606.000000)">
		<g id="Details" transform="translate(59.000000, 2936.000000)">
			
				<g id="Group-Copy-2" transform="translate(906.000000, 801.500000) scale(-1, 1) translate(-906.000000, -801.500000) translate(775.000000, 670.000000)">
				<polygon id="Rectangle-3-Copy" class="st0" points="17.3,17 245,131.7 17.3,246.3 				"/>
				<path id="Line" class="st1" d="M236,245h-17H31"/>
				<path id="Line-Copy-2" class="st1" d="M237,19h-17H32"/>
				<path id="Rectangle-3" class="st2" d="M29,5L29,5c6.6,6.6,6.6,17.4,0,24l0,0c-6.6,6.6-17.4,6.6-24,0l0,0c-6.6-6.6-6.6-17.4,0-24
					l0,0C11.6-1.7,22.3-1.7,29,5z"/>
				<path id="Rectangle-3-Copy-13" class="st0" d="M257,234L257,234c6.6,6.6,6.6,17.4,0,24l0,0c-6.6,6.6-17.4,6.6-24,0l0,0
					c-6.6-6.6-6.6-17.4,0-24l0,0C239.6,227.3,250.3,227.3,257,234z"/>
				<path id="Combined-Shape-Copy" class="st3" d="M128.3,132c0-1.7,1.3-3,3-3s3,1.3,3,3c0,1.7-1.3,3-3,3S128.3,133.7,128.3,132z
					 M149.3,132c0-1.7,1.3-3,3-3s3,1.3,3,3c0,1.7-1.3,3-3,3S149.3,133.7,149.3,132z M44.3,132c0-1.7,1.3-3,3-3s3,1.3,3,3
					c0,1.7-1.3,3-3,3S44.3,133.7,44.3,132z M170.3,132c0-1.7,1.3-3,3-3s3,1.3,3,3c0,1.7-1.3,3-3,3S170.3,133.7,170.3,132z M65.3,132
					c0-1.7,1.3-3,3-3s3,1.3,3,3c0,1.7-1.3,3-3,3S65.3,133.7,65.3,132z M191.3,132c0-1.7,1.3-3,3-3s3,1.3,3,3c0,1.7-1.3,3-3,3
					S191.3,133.7,191.3,132z M86.3,132c0-1.7,1.3-3,3-3s3,1.3,3,3c0,1.7-1.3,3-3,3S86.3,133.7,86.3,132z M212.3,132c0-1.7,1.3-3,3-3
					s3,1.3,3,3c0,1.7-1.3,3-3,3S212.3,133.7,212.3,132z M107.3,132c0-1.7,1.3-3,3-3s3,1.3,3,3c0,1.7-1.3,3-3,3
					S107.3,133.7,107.3,132z"/>
				<path id="Rectangle-3-Copy_1_" class="st4" d="M243,20.2v222.8L21.8,131.7L243,20.2z"/>
			</g>
		</g>
	</g>
</g>
</svg>
