<?xml version="1.0" encoding="UTF-8"?>
<svg width="476px" height="562px" viewBox="0 0 476 562" version="1.1" xmlns="http://www.w3.org/2000/svg" xmlns:xlink="http://www.w3.org/1999/xlink">
    <!-- Generator: Sketch 50.2 (55047) - http://www.bohemiancoding.com/sketch -->
    <title>Group 12</title>
    <desc>Created with Sketch.</desc>
    <defs></defs>
    <g id="Dskt_UI" stroke="none" stroke-width="1" fill="none" fill-rule="evenodd">
        <g id="Glyff_1366_UI_v2_fix_menu3.3" transform="translate(-776.000000, -4563.000000)">
            <g id="Roadmap" transform="translate(59.000000, 4473.000000)">
                <g transform="translate(56.000000, 52.000000)" id="September">
                    <g transform="translate(661.000000, 38.000000)">
                        <g id="Group-12">
                            <polygon id="Fill-1" fill="#2DEB96" style="mix-blend-mode: multiply;" points="150 131 0 281 150 431 325.994 431 476 281 325.994 131"></polygon>
                             <circle id="Oval-3-Copy-13" stroke="#FFFFFF" stroke-width="6" opacity="0.900000036" cx="79.0015028" cy="281.001503" r="9"></circle>
                            <circle id="Oval-3-Copy-17" stroke="#FFFFFF" stroke-width="6" opacity="0.900000036" cx="394" cy="281" r="8.78460969"></circle>
                            <path d="M233.744507,54.0006426 L237.501928,57.7581604 L241.259445,54.0006426 L237.501928,50.2428329 L233.744507,54.0006426 Z M237.502004,113 C242.472566,113 246.502004,108.970563 246.502004,104 C246.502004,99.0294373 242.472566,95 237.502004,95 C232.531441,95 228.502004,99.0294373 228.502004,104 C228.502004,108.970563 232.531441,113 237.502004,113 Z M237.502004,13 C240.263427,13 242.502004,10.7614237 242.502004,8 C242.502004,5.23857625 240.263427,3 237.502004,3 C234.74058,3 232.502004,5.23857625 232.502004,8 C232.502004,10.7614237 234.74058,13 237.502004,13 Z M336.748009,103.503777 L338.123272,108.636593 L343.256137,107.261246 L341.880936,102.128128 L336.748009,103.503777 Z M360.502004,69.8756443 C364.806637,72.3609257 370.310951,70.8860493 372.796232,66.5814157 C375.281514,62.2767821 373.806637,56.7724685 369.502004,54.2871871 C365.19737,51.8019057 359.693056,53.2767821 357.207775,57.5814157 C354.722494,61.8860493 356.19737,67.390363 360.502004,69.8756443 Z M138.255998,103.503777 L133.123072,102.128128 L131.747871,107.261246 L136.880736,108.636593 L138.255998,103.503777 Z M114.502004,69.8756443 C118.806637,67.390363 120.281514,61.8860493 117.796232,57.5814157 C115.310951,53.2767821 109.806637,51.8019057 105.502004,54.2871871 C101.19737,56.7724685 99.7224937,62.2767821 102.207775,66.5814157 C104.693056,70.8860493 110.19737,72.3609257 114.502004,69.8756443 Z" id="Combined-Shape" stroke="#2DEB96" stroke-width="6"></path>
                            <path d="M233.744507,500.000643 L237.501928,503.75816 L241.259445,500.000643 L237.501928,496.242833 L233.744507,500.000643 Z M237.502004,559 C242.472566,559 246.502004,554.970563 246.502004,550 C246.502004,545.029437 242.472566,541 237.502004,541 C232.531441,541 228.502004,545.029437 228.502004,550 C228.502004,554.970563 232.531441,559 237.502004,559 Z M237.502004,459 C240.263427,459 242.502004,456.761424 242.502004,454 C242.502004,451.238576 240.263427,449 237.502004,449 C234.74058,449 232.502004,451.238576 232.502004,454 C232.502004,456.761424 234.74058,459 237.502004,459 Z M336.748009,549.503777 L338.123272,554.636593 L343.256137,553.261246 L341.880936,548.128128 L336.748009,549.503777 Z M360.502004,515.875644 C364.806637,518.360926 370.310951,516.886049 372.796232,512.581416 C375.281514,508.276782 373.806637,502.772468 369.502004,500.287187 C365.19737,497.801906 359.693056,499.276782 357.207775,503.581416 C354.722494,507.886049 356.19737,513.390363 360.502004,515.875644 Z M138.255998,549.503777 L133.123072,548.128128 L131.747871,553.261246 L136.880736,554.636593 L138.255998,549.503777 Z M114.502004,515.875644 C118.806637,513.390363 120.281514,507.886049 117.796232,503.581416 C115.310951,499.276782 109.806637,497.801906 105.502004,500.287187 C101.19737,502.772468 99.7224937,508.276782 102.207775,512.581416 C104.693056,516.886049 110.19737,518.360926 114.502004,515.875644 Z" id="Combined-Shape-Copy-4" stroke="#2DEB96" stroke-width="6" transform="translate(237.502004, 504.000000) scale(1, -1) translate(-237.502004, -504.000000) "></path>
                         </g>
                    </g>
                </g>
            </g>
        </g>
    </g>
</svg>
