<svg xmlns="http://www.w3.org/2000/svg" enable-background="new 0 0 75 75" height="80" width="80" viewBox="0 0 300 300"><title>oBNB icon</title><g class="nc-icon-wrapper"><circle class="st0" cx="150" cy="150" r="150" fill="#45992F"></circle><g id="Logo"><path class="st1" id="XMLID_1_" d="M175.5 101.5h-10v97h10z" fill="#FFFFFF"></path><path class="st1" d="M145.1 111.5v77.1H68v-77.1h77.1m10-10H58v97.1h97.1v-97.1z" id="XMLID_2_" fill="#FFFFFF"></path></g><path class="st1" d="M186.6 184.9c0-4.2.8-7.4 2.5-9.7 1.6-2.3 4-3.4 7-3.4 2.2 0 4 .6 5.4 1.8s2.3 3 2.7 5.2c.3-2.7 1.2-4.7 2.6-6.2 1.4-1.5 3.3-2.2 5.7-2.2 3.1 0 5.6 1.2 7.4 3.6 1.8 2.4 2.7 5.8 2.7 10.2v14.3h-35.9l-.1-13.6zm14.7 5.9v-6.2c0-1.6-.4-2.9-1.2-3.8s-1.8-1.4-3.2-1.4-2.4.5-3.2 1.4-1.2 2.2-1.2 3.8v6.2h8.8zm15 0v-6.7c0-1.8-.4-3.3-1.2-4.3s-1.9-1.5-3.3-1.5c-1.5 0-2.6.5-3.4 1.5-.8 1-1.2 2.4-1.2 4.3v6.7h9.1zm6.1-25.4h-35.9v-7l22.6-15.2h-22.6v-7.6h35.9v7l-22.6 15.2h22.6v7.6zm-35.8-49.5c0-4.2.8-7.4 2.5-9.7 1.6-2.3 4-3.4 7-3.4 2.2 0 4 .6 5.4 1.8 1.4 1.2 2.3 3 2.7 5.2.3-2.7 1.2-4.7 2.6-6.2 1.4-1.5 3.3-2.2 5.7-2.2 3.1 0 5.6 1.2 7.4 3.6 1.8 2.4 2.7 5.8 2.7 10.2v14.3h-35.9l-.1-13.6zm14.7 5.9v-6.2c0-1.6-.4-2.9-1.2-3.8s-1.8-1.4-3.2-1.4-2.4.5-3.2 1.4-1.2 2.2-1.2 3.8v6.2h8.8zm15 0v-6.7c0-1.8-.4-3.3-1.2-4.3s-1.9-1.5-3.3-1.5c-1.5 0-2.6.5-3.4 1.5-.8 1-1.2 2.4-1.2 4.3v6.7h9.1z" id="Text" fill="#FFFFFF"></path></g></svg>