<?xml version="1.0" encoding="UTF-8" standalone="no"?>
<svg
   enable-background="new -155 247 300 300"
   height="70"
   width="70"
   viewBox="-155 247 300 300"
   version="1.1"
   id="svg3416"
   sodipodi:docname="oCAKE-icon.svg"
   inkscape:version="1.1.2 (1:1.1+202202050950+0a00cf5339)"
   xmlns:inkscape="http://www.inkscape.org/namespaces/inkscape"
   xmlns:sodipodi="http://sodipodi.sourceforge.net/DTD/sodipodi-0.dtd"
   xmlns="http://www.w3.org/2000/svg"
   xmlns:svg="http://www.w3.org/2000/svg">
  <defs
     id="defs3420">
    <linearGradient
       id="SVGID_1_"
       gradientUnits="userSpaceOnUse"
       x1="-53.446999"
       y1="146.10899"
       x2="155.89101"
       y2="355.44699"
       gradientTransform="matrix(1.0105295,0,0,1.0105295,-56.624538,143.49606)">
      <stop
         offset="0"
         stop-color="#64B964"
         id="stop1958" />
      <stop
         offset=".5"
         stop-color="#45992F"
         id="stop1960" />
    </linearGradient>
  </defs>
  <sodipodi:namedview
     id="namedview3418"
     pagecolor="#ffffff"
     bordercolor="#666666"
     borderopacity="1.0"
     inkscape:pageshadow="2"
     inkscape:pageopacity="0.0"
     inkscape:pagecheckerboard="0"
     showgrid="false"
     inkscape:zoom="12.057143"
     inkscape:cx="21.10782"
     inkscape:cy="35"
     inkscape:window-width="1920"
     inkscape:window-height="1043"
     inkscape:window-x="1920"
     inkscape:window-y="0"
     inkscape:window-maximized="1"
     inkscape:current-layer="g3414" />
  <circle
     class="st0"
     cx="-4.885426"
     cy="396.93686"
     r="149.55836"
     fill="url(#SVGID_1_)"
     id="circle1963"
     style="fill:url(#SVGID_1_);stroke-width:1.01053" />
  <title
     id="title3405">oCAKE icon</title>
  <g
     class="nc-icon-wrapper"
     id="g3414">
    <path
       id="i"
       class="st1"
       d="M20.5 348.5h-10v97h10z"
       fill="#FFFFFF" />
    <path
       id="o"
       class="st1"
       d="M-9.9 358.5v77.1H-87v-77.1h77.1m10-10H-97v97.1H.1v-97.1z"
       fill="#FFFFFF" />
    <g
       id="Cake_1_">
      <path
         id="CA"
         class="st1"
         d="M49.9 445.6c-4 0-7.4-.5-10.3-1.6-2.9-1-5.2-2.6-6.8-4.5-1.6-2-2.4-4.3-2.4-7 0-2.1.6-3.9 1.8-5.6 1.1-1.6 2.8-3 5-4s4.5-1.6 7.4-1.8v5.7c-2.2.3-4 1-5.2 2s-1.9 2.3-1.9 3.9c0 2.1 1.1 3.8 3.5 5.1 2.4 1.3 5.3 1.9 9.2 1.9 3.7 0 6.8-.6 9.1-1.9 2.3-1.3 3.5-2.9 3.5-5.1 0-1.6-.7-2.9-1.9-3.9s-2.9-1.7-5.2-2v-5.7c2.8.2 5.2.8 7.4 1.8s3.7 2.3 5 4c1.1 1.6 1.8 3.5 1.8 5.6 0 2.7-.8 4.9-2.4 7-1.6 2-3.9 3.4-6.8 4.5-3.5 1.1-7 1.6-10.8 1.6zm19.2-24.7l-38.5-9.7v-6.8l38.5-9.6v6.1l-8.4 2V413l8.4 2v5.9zm-15-9.4v-7L39.5 408l14.6 3.5z"
         fill="#FFFFFF" />
      <path
         id="K"
         class="st1"
         d="M69 387H58.9l-6.1-3.6 16.3-7.3v-6.5l-22.8 9.9-16-9.3v6.6l17.4 10.1H30.4v5.4H69V387z"
         fill="#FFFFFF" />
      <path
         id="E"
         class="st1"
         d="M30.4 367.1v-18h7.2v12.2h8.7v-10H53v10h9v-12.7h7.2v18.5H30.4z"
         fill="#FFFFFF" />
    </g>
  </g>
</svg>
