<svg xmlns="http://www.w3.org/2000/svg" enable-background="new -99 101 300 300" height="70" width="70" viewBox="-99 101 300 300"><title>oDOT icon</title><g class="nc-icon-wrapper"><circle id="Circle" class="st0" cx="51.2" cy="250.8" r="148.9" fill="#45992F"></circle><g id="DOT"><path id="T" class="st1" d="M86.4 233.2v-30.5h7.1v11.1H125v8.2H93.4v11.1h-7v.1z" fill="#FFFFFF"></path><path class="st1" d="M105.5 241.6c4.2 0 8.3 0 10.3 1.1 1.7.9 2.1 4.5 2.1 7.3 0 2.9-.4 6.4-2.1 7.3-1.9 1.1-6.2 1.1-10.3 1.1-4.2 0-8.3 0-10.3-1.1-1.7-.9-2.1-4.5-2.1-7.3 0-2.9.4-6.4 2.1-7.3 2-1.1 6.3-1.1 10.3-1.1m0-6.9c-10.6 0-19.3 0-19.3 15.3s8.6 15.3 19.3 15.3 19.3 0 19.3-15.3-8.5-15.3-19.3-15.3z" id="O" fill="#FFFFFF"></path><path id="D" class="st1" d="M86.3 298.8v-12.7c0-3.8.8-7 2.5-9.7 1.7-2.9 3.9-5.1 6.8-6.5 3-1.6 6.3-2.3 10-2.3 3.8 0 7 .7 10 2.3 3 1.6 5.2 3.8 6.8 6.5 1.7 2.9 2.5 6.2 2.5 9.7v12.7H86.3zm31.6-12.7c0-3.3-1.1-5.9-3.4-7.7-2.3-1.9-5.3-2.9-8.9-2.9-3.8 0-6.7 1-8.9 2.9-2.3 1.9-3.4 4.5-3.4 7.7v4.9h24.8l-.2-4.9z" fill="#FFFFFF"></path></g><path id="o" class="st1" d="M46.3 212.6v76.5h-76.5v-76.5h76.5m9.9-9.9h-96.4v96.4h96.4v-96.4z" fill="#FFFFFF"></path><path id="i" class="st1" d="M76.5 202.7h-10V299h10z" fill="#FFFFFF"></path></g></svg>