<?xml version="1.0" encoding="UTF-8" standalone="no"?>
<svg
   enable-background="new -99 101 300 300"
   height="70"
   width="70"
   viewBox="-99 101 300 300"
   version="1.1"
   id="svg13"
   sodipodi:docname="oDOT.svg"
   inkscape:version="1.1.2 (1:1.1+202202050950+0a00cf5339)"
   xmlns:inkscape="http://www.inkscape.org/namespaces/inkscape"
   xmlns:sodipodi="http://sodipodi.sourceforge.net/DTD/sodipodi-0.dtd"
   xmlns:xlink="http://www.w3.org/1999/xlink"
   xmlns="http://www.w3.org/2000/svg"
   xmlns:svg="http://www.w3.org/2000/svg">
  <sodipodi:namedview
     inkscape:zoom="12.057143"
     inkscape:cx="29.899289"
     inkscape:cy="35.331753"
     inkscape:window-width="1920"
     inkscape:window-height="1043"
     inkscape:window-x="1920"
     inkscape:window-y="0"
     inkscape:window-maximized="1"
     inkscape:current-layer="svg13"
     id="namedview1867"
     pagecolor="#ffffff"
     bordercolor="#666666"
     borderopacity="1.0"
     inkscape:pageshadow="2"
     inkscape:pageopacity="0.0"
     inkscape:pagecheckerboard="0"
     showgrid="false" />
  <circle
     class="st0"
     cx="49.775009"
     cy="251.53926"
     r="148"
     fill="url(#SVGID_1_)"
     id="circle1963"
     style="fill:url(#SVGID_1_)" />
  <g
     id="Circle"
     class="nc-icon-wrapper">
    <g
       id="DOT">
      <path
         id="T"
         class="st1"
         d="M86.4 233.2v-30.5h7.1v11.1H125v8.2H93.4v11.1h-7v.1z"
         fill="#FFFFFF" />
      <path
         class="st1"
         d="M105.5 241.6c4.2 0 8.3 0 10.3 1.1 1.7.9 2.1 4.5 2.1 7.3 0 2.9-.4 6.4-2.1 7.3-1.9 1.1-6.2 1.1-10.3 1.1-4.2 0-8.3 0-10.3-1.1-1.7-.9-2.1-4.5-2.1-7.3 0-2.9.4-6.4 2.1-7.3 2-1.1 6.3-1.1 10.3-1.1m0-6.9c-10.6 0-19.3 0-19.3 15.3s8.6 15.3 19.3 15.3 19.3 0 19.3-15.3-8.5-15.3-19.3-15.3z"
         id="O"
         fill="#FFFFFF" />
      <path
         id="D"
         class="st1"
         d="M86.3 298.8v-12.7c0-3.8.8-7 2.5-9.7 1.7-2.9 3.9-5.1 6.8-6.5 3-1.6 6.3-2.3 10-2.3 3.8 0 7 .7 10 2.3 3 1.6 5.2 3.8 6.8 6.5 1.7 2.9 2.5 6.2 2.5 9.7v12.7H86.3zm31.6-12.7c0-3.3-1.1-5.9-3.4-7.7-2.3-1.9-5.3-2.9-8.9-2.9-3.8 0-6.7 1-8.9 2.9-2.3 1.9-3.4 4.5-3.4 7.7v4.9h24.8l-.2-4.9z"
         fill="#FFFFFF" />
    </g>
    <path
       id="o"
       class="st1"
       d="M46.3 212.6v76.5h-76.5v-76.5h76.5m9.9-9.9h-96.4v96.4h96.4v-96.4z"
       fill="#FFFFFF" />
    <path
       id="i"
       class="st1"
       d="M76.5 202.7h-10V299h10z"
       fill="#FFFFFF" />
  </g>
  <linearGradient
     id="circle-grad">
    <stop
       id="stop1052"
       offset="0"
       style="stop-color:#45992f;stop-opacity:1;" />
    <stop
       style="stop-color:#90EE90;stop-opacity:1"
       offset="1"
       id="stop1054" />
  </linearGradient>
  <defs
     id="defs1882">
    <linearGradient
       x1="201.69086"
       y1="401.80347"
       x2="-97.945274"
       y2="101.82381"
       xlink:href="#circle-grad"
       id="linearGradient1058"
       gradientUnits="userSpaceOnUse" />
    <linearGradient
       id="SVGID_1_"
       gradientUnits="userSpaceOnUse"
       x1="-53.446999"
       y1="146.10899"
       x2="155.89101"
       y2="355.44699"
       gradientTransform="translate(-1.4249918,0.73927407)">
      <stop
         offset="0"
         stop-color="#64B964"
         id="stop1958" />
      <stop
         offset=".5"
         stop-color="#45992F"
         id="stop1960" />
    </linearGradient>
  </defs>
  <title
     id="oDOT" />
</svg>
