<svg xmlns="http://www.w3.org/2000/svg" enable-background="new -99 101 300 300" height="70" width="70" viewBox="-99 101 300 300"><title>oICP icon</title><g class="nc-icon-wrapper"><g id="Layer_1_1_"><linearGradient id="SVGID_1_" gradientUnits="userSpaceOnUse" x1="-53.447" y1="146.109" x2="155.891" y2="355.447"><stop offset="0" stop-color="#64B964"></stop><stop offset=".5" stop-color="#45992F"></stop></linearGradient><circle class="st0" cx="51.2" cy="250.8" r="148" fill="url(#SVGID_1_)"></circle><path class="st1" d="M46.4 212.8v76.1h-76.1v-76.1h76.1m9.9-9.9h-95.8v95.8h95.8v-95.8z" id="XMLID_2_" fill="#FFFFFF"></path><path class="st1" id="XMLID_1_" d="M76.4 202.9h-9.9v95.7h9.9z" fill="#FFFFFF"></path></g><path id="XMLID_7_" class="st1" d="M86.2 298.6v-7.8h37.9v7.8z" fill="#FFFFFF"></path><path id="XMLID_8_" class="st1" d="M105 279c-3.8 0-7.1-.8-10-2.3-2.9-1.5-5-3.7-6.5-6.6-1.5-2.9-2.3-6.2-2.3-10.1 0-3.1.6-5.6 1.8-8.1 1.1-2.4 2.8-4.3 4.8-5.8 2.1-1.5 4.3-2.4 7.1-2.6v8.3c-2.1.5-3.8 1.5-5 3-1.2 1.5-1.9 3.4-1.9 5.6 0 3.1 1.1 5.5 3.4 7.4s5.1 2.8 8.9 2.8c3.7 0 6.5-.9 8.7-2.8 2.2-1.8 3.4-4.1 3.4-7.4 0-2.3-.7-4.2-1.9-5.6s-2.9-2.5-5-3v-8.3c2.8.3 5 1.1 7.1 2.6 2.1 1.5 3.7 3.4 4.8 5.8 1.1 2.4 1.8 5.1 1.8 8.1 0 3.8-.8 7.1-2.3 10.1-1.5 2.9-3.7 5-6.5 6.6-3.3 1.5-6.6 2.3-10.4 2.3z" fill="#FFFFFF"></path><path class="st1" d="M86.3 217.7c0-2.8.5-5.1 1.6-7.3 1.1-2.1 2.6-3.7 4.4-4.8 2-1.2 4.1-1.7 6.7-1.7s4.8.6 6.7 1.7c1.9 1.2 3.4 2.8 4.4 4.8 1.1 2.1 1.6 4.5 1.6 7.3v7.4h12.8v8.2H86.2l.1-15.6zm18.6 7.3v-6.6c0-2-.5-3.5-1.6-4.6-1.1-1.1-2.5-1.7-4.2-1.7-1.9 0-3.3.6-4.3 1.7-1.1 1.1-1.6 2.7-1.6 4.6v6.6h11.7z" fill="#FFFFFF"></path></g></svg>