<svg 
    xmlns="http://www.w3.org/2000/svg" 
    enable-background="new -234 466 70 70" 
    height="70" 
    width="70" 
    viewBox="-234 466 70 70"
>
    <title>
        oUSD icon
    </title>
    <g 
        class="nc-icon-wrapper"
    >
        <circle 
            id="Circle" 
            class="st0" 
            cx="-199" 
            cy="501" 
            r="35" 
            fill="#3D2096"
        >
        </circle>
		<polygon 
			class="st1" 
			fill="#ffffff"
			points="-193.1,489.7 -195.4,489.7 -195.4,512.3 -193.1,512.3"
		/>
		<g id="XMLID_2_">
			<path 
			fill="#ffffff"
			d="M-200.1,492v18h-18v-18H-200.1 M-197.8,489.7h-22.7v22.7h22.7V489.7L-197.8,489.7z"/>
		</g>
		<path 
			transform="rotate(-90 189.035 14.062)"
			fill="#ffffff" 
			d="M-307.4-365.4v4.8c0,0.7,0.1,1.2,0.4,1.5c0.3,0.3,0.7,0.5,1.2,0.5c0.6,0,1-0.2,1.2-0.5
			c0.3-0.4,0.4-0.8,0.4-1.5v-4.8h1.8v4.7c0,1.2-0.3,2.1-0.9,2.7c-0.6,0.6-1.4,0.9-2.5,0.9s-2-0.3-2.5-0.9
			c-0.6-0.6-0.9-1.5-0.9-2.7v-4.7C-309.2-365.4-307.4-365.4-307.4-365.4z M-299.6-359.8c0,0.4,0.2,0.7,0.5,1
			c0.3,0.3,0.7,0.4,1.2,0.4c0.4,0,0.8-0.1,1-0.3c0.3-0.2,0.4-0.4,0.4-0.7c0-0.2-0.1-0.4-0.2-0.5c-0.1-0.1-0.4-0.2-0.6-0.3
			c-0.3-0.1-0.7-0.2-1.2-0.3c-0.5-0.1-1-0.2-1.4-0.4c-0.4-0.2-0.7-0.4-0.9-0.7s-0.4-0.7-0.4-1.3c0-0.5,0.1-0.9,0.4-1.3
			c0.3-0.4,0.6-0.7,1.1-0.9c0.5-0.2,1-0.3,1.6-0.3c0.6,0,1.2,0.1,1.6,0.3c0.5,0.2,0.9,0.5,1.1,0.9s0.4,0.8,0.4,1.3h-1.8
			c0-0.4-0.2-0.7-0.4-0.9c-0.3-0.2-0.6-0.3-1-0.3c-0.4,0-0.7,0.1-1,0.3c-0.2,0.2-0.4,0.4-0.4,0.7c0,0.2,0.1,0.4,0.2,0.5
			c0.1,0.1,0.4,0.2,0.6,0.3c0.3,0.1,0.7,0.2,1.2,0.3c0.6,0.1,1,0.2,1.4,0.4s0.7,0.4,0.9,0.7c0.2,0.3,0.4,0.7,0.4,1.3
			c0,0.5-0.1,1-0.4,1.4s-0.7,0.7-1.2,0.9c-0.5,0.2-1.1,0.4-1.7,0.4c-0.7,0-1.3-0.1-1.8-0.4c-0.5-0.2-0.9-0.6-1.2-1
			c-0.3-0.4-0.4-0.9-0.4-1.4C-301.4-359.8-299.6-359.8-299.6-359.8z M-293.6-365.4h2.9c0.8,0,1.6,0.2,2.2,0.5s1.1,0.8,1.5,1.5
			s0.5,1.4,0.5,2.1c0,0.8-0.2,1.5-0.5,2.1s-0.8,1.1-1.5,1.5s-1.4,0.5-2.2,0.5h-2.9V-365.4z M-290.8-358.6c0.7,0,1.3-0.2,1.8-0.7
			c0.4-0.5,0.6-1.1,0.6-1.9c0-0.8-0.2-1.4-0.6-1.9c-0.4-0.5-1-0.7-1.8-0.7h-1.1v5.3L-290.8-358.6L-290.8-358.6z"
		/>
    </g>
</svg>