<?xml version="1.0" encoding="utf-8"?>
<!-- Generator: Adobe Illustrator 19.0.0, SVG Export Plug-In . SVG Version: 6.00 Build 0)  -->
<svg version="1.0" id="Layer_1" xmlns="http://www.w3.org/2000/svg" xmlns:xlink="http://www.w3.org/1999/xlink" x="0px" y="0px"
	 viewBox="0 0 70 70" style="enable-background:new 0 0 70 70;" xml:space="preserve">
<g>
	<g id="Main">
		
			<linearGradient id="SVGID_1_" gradientUnits="userSpaceOnUse" x1="59.7487" y1="10.2513" x2="10.2513" y2="59.7487" gradientTransform="matrix(1 0 0 -1 0 70)">
			<stop  offset="0" style="stop-color:#3E2165"/>
			<stop  offset="1" style="stop-color:#3D2096"/>
		</linearGradient>
		<circle style="fill:url(#SVGID_1_);" cx="35" cy="35" r="35"/>
		<g id="Logo">
			<path id="XMLID_1_" style="fill:#FFFFFF;" d="M41,23.7h-2.3v22.6H41V23.7z"/>
			<path id="XMLID_2_" style="fill:#FFFFFF;" d="M33.9,26v18h-18V26H33.9 M36.2,23.7H13.5v22.7h22.7V23.7z"/>
		</g>
	</g>
	<g id="Currency">
		<g id="USD_1_" transform="rotate(-90 189.035 14.062)">
			<path id="a" d="M158.6-131.4v4.8c0,0.7,0.1,1.2,0.4,1.5s0.7,0.5,1.2,0.5s1-0.2,1.2-0.5s0.4-0.8,0.4-1.5v-4.8h1.8v4.7
				c0,1.2-0.3,2.1-0.9,2.7c-0.6,0.6-1.4,0.9-2.5,0.9s-2-0.3-2.5-0.9c-0.6-0.6-0.9-1.5-0.9-2.7v-4.7H158.6z M166.4-125.8
				c0,0.4,0.2,0.7,0.5,1s0.7,0.4,1.2,0.4c0.4,0,0.8-0.1,1-0.3c0.3-0.2,0.4-0.4,0.4-0.7c0-0.2-0.1-0.4-0.2-0.5s-0.4-0.2-0.6-0.3
				c-0.3-0.1-0.7-0.2-1.2-0.3c-0.5-0.1-1-0.2-1.4-0.4c-0.4-0.2-0.7-0.4-0.9-0.7c-0.2-0.3-0.4-0.7-0.4-1.3c0-0.5,0.1-0.9,0.4-1.3
				s0.6-0.7,1.1-0.9s1-0.3,1.6-0.3s1.2,0.1,1.6,0.3c0.5,0.2,0.9,0.5,1.1,0.9s0.4,0.8,0.4,1.3h-1.8c0-0.3-0.2-0.7-0.4-0.9
				s-0.6-0.3-1-0.3s-0.7,0.1-1,0.3c-0.2,0.2-0.3,0.4-0.3,0.7c0,0.2,0.1,0.4,0.2,0.5c0.1,0.1,0.4,0.2,0.6,0.3
				c0.3,0.1,0.7,0.2,1.2,0.3c0.6,0.1,1,0.2,1.4,0.4c0.4,0.2,0.7,0.4,0.9,0.7c0.2,0.3,0.3,0.7,0.3,1.3c0,0.5-0.1,1-0.4,1.4
				c-0.3,0.4-0.7,0.7-1.2,0.9c-0.5,0.2-1.1,0.3-1.7,0.3c-0.7,0-1.3-0.1-1.8-0.4c-0.5-0.2-0.9-0.6-1.2-1s-0.4-0.9-0.4-1.4
				C164.6-125.8,166.4-125.8,166.4-125.8z M172.4-131.4h2.9c0.8,0,1.6,0.2,2.2,0.5c0.6,0.4,1.1,0.8,1.5,1.5c0.4,0.6,0.5,1.4,0.5,2.1
				c0,0.8-0.2,1.5-0.5,2.1s-0.8,1.1-1.5,1.5c-0.6,0.3-1.4,0.5-2.2,0.5h-2.9C172.4-123.1,172.4-131.4,172.4-131.4z M175.2-124.6
				c0.7,0,1.3-0.2,1.8-0.7c0.4-0.5,0.6-1.1,0.6-1.9s-0.2-1.4-0.6-1.9c-0.4-0.5-1-0.7-1.8-0.7h-1.1v5.3
				C174.1-124.5,175.2-124.6,175.2-124.6z"/>
			<path id="a_1_" style="fill:#FFFFFF;" d="M158.6-131.4v4.8c0,0.7,0.1,1.2,0.4,1.5s0.7,0.5,1.2,0.5s1-0.2,1.2-0.5s0.4-0.8,0.4-1.5
				v-4.8h1.8v4.7c0,1.2-0.3,2.1-0.9,2.7c-0.6,0.6-1.4,0.9-2.5,0.9s-2-0.3-2.5-0.9c-0.6-0.6-0.9-1.5-0.9-2.7v-4.7H158.6z
				 M166.4-125.8c0,0.4,0.2,0.7,0.5,1s0.7,0.4,1.2,0.4c0.4,0,0.8-0.1,1-0.3c0.3-0.2,0.4-0.4,0.4-0.7c0-0.2-0.1-0.4-0.2-0.5
				s-0.4-0.2-0.6-0.3c-0.3-0.1-0.7-0.2-1.2-0.3c-0.5-0.1-1-0.2-1.4-0.4c-0.4-0.2-0.7-0.4-0.9-0.7c-0.2-0.3-0.4-0.7-0.4-1.3
				c0-0.5,0.1-0.9,0.4-1.3s0.6-0.7,1.1-0.9s1-0.3,1.6-0.3s1.2,0.1,1.6,0.3c0.5,0.2,0.9,0.5,1.1,0.9s0.4,0.8,0.4,1.3h-1.8
				c0-0.3-0.2-0.7-0.4-0.9s-0.6-0.3-1-0.3s-0.7,0.1-1,0.3c-0.2,0.2-0.3,0.4-0.3,0.7c0,0.2,0.1,0.4,0.2,0.5c0.1,0.1,0.4,0.2,0.6,0.3
				c0.3,0.1,0.7,0.2,1.2,0.3c0.6,0.1,1,0.2,1.4,0.4c0.4,0.2,0.7,0.4,0.9,0.7c0.2,0.3,0.3,0.7,0.3,1.3c0,0.5-0.1,1-0.4,1.4
				c-0.3,0.4-0.7,0.7-1.2,0.9c-0.5,0.2-1.1,0.3-1.7,0.3c-0.7,0-1.3-0.1-1.8-0.4c-0.5-0.2-0.9-0.6-1.2-1s-0.4-0.9-0.4-1.4
				C164.6-125.8,166.4-125.8,166.4-125.8z M172.4-131.4h2.9c0.8,0,1.6,0.2,2.2,0.5c0.6,0.4,1.1,0.8,1.5,1.5c0.4,0.6,0.5,1.4,0.5,2.1
				c0,0.8-0.2,1.5-0.5,2.1s-0.8,1.1-1.5,1.5c-0.6,0.3-1.4,0.5-2.2,0.5h-2.9C172.4-123.1,172.4-131.4,172.4-131.4z M175.2-124.6
				c0.7,0,1.3-0.2,1.8-0.7c0.4-0.5,0.6-1.1,0.6-1.9s-0.2-1.4-0.6-1.9c-0.4-0.5-1-0.7-1.8-0.7h-1.1v5.3
				C174.1-124.5,175.2-124.6,175.2-124.6z"/>
		</g>
	</g>
</g>
</svg>
