<svg xmlns="http://www.w3.org/2000/svg" enable-background="new 0 0 300 300" height="70" width="70" viewBox="0 0 300 300"><title>oXAU icon</title><g class="nc-icon-wrapper"><g id="Main"><circle class="st0" cx="150" cy="150" r="150" fill="#234CAA"></circle><g id="Logo"><path class="st1" id="XMLID_1_" d="M175.5 101.5h-10v97h10z" fill="#FFFFFF"></path><path class="st1" d="M145.1 111.5v77.1H68v-77.1h77.1m10-10H58v97.1h97.1v-97.1z" id="XMLID_2_" fill="#FFFFFF"></path></g></g><g id="Currency"><path id="XAU_1_" class="st1" d="M204 187.2l-15.6 10.9V189l10-6.9-10-7v-8.2l15.6 10.9 16.3-11.4v9.1l-10.7 7.4 10.7 7.6v8.1L204 187.2zm16.3-21.8l-31.9-12.8v-9l31.9-12.7v8l-7 2.7V155l7 2.7v7.7zM207.8 153v-9.2l-12.1 4.6 12.1 4.6zm-19.4-30.3h18.5c2.6 0 4.5-.5 5.8-1.6s2-2.8 2-5.2c0-2.4-.7-4.1-2-5.2s-3.2-1.7-5.8-1.7h-18.5v-7.5h18.1c4.6 0 8 1.2 10.4 3.7 2.4 2.4 3.6 6 3.6 10.7s-1.2 8.2-3.6 10.7c-2.4 2.4-5.9 3.6-10.4 3.6h-18.1v-7.5z" fill="#FFFFFF"></path></g></g></svg>