<svg id="Calque_1" data-name="Calque 1" xmlns="http://www.w3.org/2000/svg" xmlns:xlink="http://www.w3.org/1999/xlink" viewBox="0 0 595.28 153.58"><defs><style>.cls-1{fill:#fff;}.cls-2{fill:url(#linear-gradient);}.cls-3{fill:#e74350;}</style><linearGradient id="linear-gradient" x1="76.79" y1="153.58" x2="76.79" y2="53.07" gradientUnits="userSpaceOnUse"><stop offset="0" stop-color="#50bcec"/><stop offset="1" stop-color="#544797"/></linearGradient></defs><path class="cls-1" d="M134.61,33.09H155.8l20.78,54.15,20.78-54.15h21.18L184,115.52H169.18Z"/><path class="cls-1" d="M233.94,88.64c0,10.09,2.7,14,10.09,14s10.09-3.9,10.09-14V64.26h17.69V92.94c0,17.18-8.59,24.08-27.78,24.08s-27.77-6.9-27.77-24.08V64.26h17.68Z"/><path class="cls-1" d="M282.81,29.59h17.68v85.93H282.81Z"/><path class="cls-1" d="M346.66,88.74l26.77,26.78H350.65L330.17,95v20.48H312.48V29.59h17.69V82.15l17.89-17.89h23Z"/><path class="cls-1" d="M396.32,62.77c6.9,0,12.59,2.29,16.79,6.39v-4.9h17.68v51.26H413.31v-5.8h-.2a22.7,22.7,0,0,1-16.79,7.3c-15,0-25.48-12.09-25.48-27.08S381.34,62.77,396.32,62.77Zm5.3,39.16c6.89,0,11.89-5,11.89-12a11.94,11.94,0,1,0-23.88,0C389.63,96.94,394.43,101.93,401.62,101.93Z"/><path class="cls-1" d="M442.79,64.26h17.69v5.4h.2c4-4,9.09-6.89,14.69-6.89,9.39,0,22.48,4.69,22.48,19v33.77H480.16v-29c0-5.09-3.49-10-9.19-10-5.3,0-10.49,4.9-10.49,10v29H442.79Z"/><path class="cls-1" d="M528.43,43.08a10.49,10.49,0,1,1-10.49-10.49A10.49,10.49,0,0,1,528.43,43.08Zm-19.58,72.44h17.68V64.26H508.85Z"/><path class="cls-1" d="M560.8,62.77c6.9,0,12.59,2.29,16.79,6.39v-4.9h17.69v51.26H577.79v-5.8h-.2A22.7,22.7,0,0,1,560.8,117c-15,0-25.48-12.09-25.48-27.08S545.82,62.77,560.8,62.77Zm5.3,39.16c6.89,0,11.89-5,11.89-12a11.94,11.94,0,1,0-23.88,0C554.11,96.94,558.91,101.93,566.1,101.93Z"/><path class="cls-2" d="M100.44,73.9l33.9,67.79H19.24L53.13,73.9,68,90.24l8.79,9.67,8.8-9.67L100.44,73.9m2.88-20.83L76.78,82.24,50.25,53.07,0,153.58H153.57L103.32,53.07Z"/><path class="cls-3" d="M76.79,26.59l8.45,16.9-8.46,9.3L68.33,43.5l8.46-16.91M76.79,0,54.05,45.47l22.73,25,22.74-25L76.79,0Z"/></svg>